<?xml version="1.0" encoding="UTF-8"?>
<svg id="Laag_1" xmlns="http://www.w3.org/2000/svg" viewBox="0 0 564.63 729.16">
  <defs>
    <style>
      .cls-1 {
        fill: #fff;
      }
    </style>
  </defs>
  <path class="cls-1" d="M333.78,463.8c.3.36.27,1.06.26,1.6-.14,9.88-3.34,21.1-12.45,26.42-2.5,1.46-5.17,2.05-7.85,2-2.9-.05-5.82-.85-8.55-2.14-8.92-4.19-15.78-17.14-14.06-26.74.05-.28.15-.55.29-.82,1.31-2.55,4.96-2.57,6.5-.15.19.3.36.61.5.94.69,1.68.25,3.8.62,5.66.99,4.93,2.88,9.43,6.96,12.67,5.85,4.65,12.37,3.93,16.12-2.47,2.15-3.66,3.01-8.1,4.21-12.26.44-1.53-.24-3.47.39-4.85.05-.11.11-.22.18-.33,1.26-2.17,4.33-2.41,6.01-.54.3.33.59.67.87,1.01Z"/>
  <polygon class="cls-1" points="469.66 187.37 469.06 187.51 472.24 178.34 469.66 187.37"/>
  <path class="cls-1" d="M478.66,331.85c.33.23.42.81.94,1.88-5.74,1.2-11.02.17-16.22-1.33-11.16-3.24-20.43-9.61-27.63-18.53-4.98-6.15-9.19-12.97-13.23-19.8-3.34-5.65-5.77-11.83-8.92-17.61-2.88-5.29-5.76-10.68-9.39-15.44-11.32-14.84-27.3-16.36-41.49-4.12-3.09,2.67-5.92,5.77-8.32,9.06-2.48,3.4-1.88,6.83.9,8.72,3.08,2.1,5.72.95,8.11-1.34,3.16-3.03,6.01-6.49,9.52-9.04,7.58-5.51,14.33-4.81,20.3,2.4,3.64,4.39,6.59,9.45,9.23,14.54,6.84,13.13,12.91,26.66,22.02,38.54,1.82,2.37,2.46,6.1,2.56,9.25.35,10.42.85,20.89.13,31.27-1.87,27.08-4.31,54.13-6.64,81.19-.33,3.78-1.37,7.51-2.25,12.2-5.26-3.97-9.79-7.78-14.71-11.01-4.79-3.14-9.98-5.69-15.57-8.83,1.74-3.22,2.29-6.35-2.31-8.13-34.44-13.37-69.47-20.49-106.22-10.53-12.85,3.48-24.52,9.5-35.84,16.31-1.18.7-2.42,1.33-3.5,2.16-14.69,11.31-29.39,9.99-44.16.17-3.89-2.58-7.91-4.96-11.78-7.57-5.3-3.56-6.67-3.65-11.68.03-3.01,2.2-5.4,5.39-10.13,3.28-1.39-.62-4.07,1.06-5.92,2.1-5.63,3.15-11.04,2.51-16.47-.4-12.82-6.87-18.35-24.12-11.85-37.05,4.7-9.35,12.93-12.5,22.7-8.64,1.52.6,2.95,1.54,4.51,1.97,4.22,1.16,6.75-.4,7.89-4.77.9-3.41,1.68-6.86,2.6-10.69,31.55-8.14,52.51-28.12,67.91-54.77,5.07-8.78,9.21-18.11,14.31-26.87,4.26-7.33,8.62-14.79,14.13-21.15,13.18-15.21,31.06-16.37,46.84-3.81,2.35,1.88,4.42,4.11,6.69,6.1,2.73,2.4,5.66,3.53,8.78.68,2.52-2.31,2.64-5.43-.26-8.8-7.33-8.54-16.38-14.57-27.4-17.31-15.18-3.77-28.57.34-39.4,10.98-6.38,6.25-11.71,13.8-16.45,21.43-5.63,9.07-10.06,18.88-15.12,28.31-8.96,16.66-20.28,31.33-36.29,41.89-8.99,5.94-18.46,10.68-29.6,11.24,0-.88-.18-1.63.03-1.77,21-13.58,31.44-33.99,36.41-57.53,2.78-13.13,4.22-26.54,6.29-39.81,4.92-31.53,32.34-56.62,64.08-58.49,9.99-.58,18.9,2.78,27.03,8.38,10.98,7.57,19.72,17.4,28.02,27.69,1.73,2.13,3.33,4.4,5.28,6.3,2.43,2.38,5.4,2.87,8.14.56,2.48-2.09,2.14-4.85.95-7.54-.33-.74-.82-1.43-1.32-2.08-9.87-12.91-20.41-25.16-33.87-34.56-16.25-11.36-33.73-13.88-52.43-7.27-13.07,4.63-24.93,11.42-35.44,20.49-8.28,7.15-14.93,15.72-17.83,26.23-4.6,16.71-14.6,29.98-25.42,42.8-8.31,9.85-18.13,18.16-29.6,25.19.98-2.7,1.99-5.41,2.95-8.12,2.48-7.02,4.73-14.09,4.05-21.68-.83-9.27-7.5-14.49-16.54-12.27-4.45,1.09-8.59,3.5-12.77,5.49-2.16,1.03-4.12,2.45-7.67,4.62,1.74-8.73,2.67-16.04,4.69-23.05,7.98-27.73,22.01-51.9,43.19-71.76,1.96-1.84,3.88-3.99,5.01-6.38,2.95-6.19.08-10.64-6.7-9.88-8.15.92-16.29,2.41-24.28,4.28-7.13,1.67-14.06,4.19-22.54,6.77,2.19-2.57,3.38-4.21,4.8-5.61,28.68-28.39,63.32-44.82,102.99-51.05,3.51-.55,7.11-.59,10.67-.78,3.01-.17,6.05-.06,9.05-.33,5.6-.5,8.45-2.48,8.6-5.97.19-4.55-3.09-5.91-6.71-7.02-7.67-2.35-14.7-5.85-21.47-12.87,3.07.62,4.76.83,6.36,1.31,21.43,6.48,43.32,6.66,65.32,4.58,18.04-1.7,36.01-4.03,54.06-5.6,22.57-1.96,45.12-1.8,66.67,6.33,7.88,2.96,15.47,7.08,22.54,11.68,9.2,6,14.59,15.17,15.46,26.06.74,9.24.37,18.64-.38,27.89-.63,7.78-4.02,14.65-9.33,20.65-5.41,6.1-3.14,12.09,4.94,13.5,2.62.46,5.47.13,8.14-.29,3.46-.54,6.84-1.53,11.65-2.65-4.91,10.62-10.39,19.07-20.46,23.45-7.83,3.4-15.69,1.07-20.87-5.69-9.42-12.29-21.67-15.73-35.7-9.25-13.9,6.41-24.34,16.71-31.26,30.42-.85,1.68-1.92,3.77-1.58,5.39.45,2.13,1.81,4.97,3.52,5.65,1.68.67,4.69-.45,6.37-1.75,1.58-1.23,2.17-3.72,3.24-5.63,5.23-9.34,12.63-16.6,21.89-21.82,10.65-5.99,18.99-3.99,25.24,6.41,3.51,5.84,6.1,12.27,8.75,18.58,5.74,13.65,10.78,27.61,16.97,41.05,8.96,19.48,21.4,36.4,39.5,48.59Z"/>
  <path class="cls-1" d="M482.61,289.21c-2.99,4.39-7.38,8.05-11.72,11.24-4.27,3.13-5.78,2.65-8.75-1.65-3.41-4.94-6.88-9.96-9.43-15.37-5.24-11.12-9.9-22.52-14.73-33.84-.6-1.41-.74-3.02-1.34-5.59,21.66,5.33,40.53.22,58.5-13.64.19,21.73-.73,41.53-12.53,58.85Z"/>
  <path d="M469.06,187.51l.6-.14,2.58-9.03-3.18,9.17Z"/>
  <path d="M507.66,321.56c-1.59.19-3.15.91-4.64,1.59-5.73,2.6-11.38,1.97-16.59-1.07-4.18-2.43-7.94-5.58-12.65-8.96,15.73-9.05,24.34-22.21,28.55-38.1,2.37-8.95,3.77-18.29,4.41-27.54.92-13.4.88-26.88.97-40.33.03-4.95-2.21-7.59-5.56-7.93-3.26-.33-5.82,1.93-7.29,6.51-.25.78-.31,1.62-.52,2.41-1.71,6.32-5.25,11.42-10.43,15.4-9.02,6.92-19.34,10.23-30.6,10.63-2.36.09-4.76-.69-8.45-1.27,19.39-11.21,30.8-27.36,34.44-47.75.57-3.21.83-6.62.34-9.81-.27-1.78-2.15-4.38-3.67-4.67-1.99-.38-4.57.81-6.48,2-1.22.76-1.63,2.77-2.5,4.16-2.85,4.55-7.05,7.03-13.42,9.09,5.76-11.68,6.85-22.78,7.41-34.03,1.39-28.16-10.62-48.06-36.48-59.47-3.76-1.66-7.56-3.28-11.45-4.59-20.34-6.9-41.31-8.89-62.58-7.1-22.43,1.9-44.79,4.74-67.22,6.51-29.49,2.33-58.26.6-83.07-18.51-2.32-1.79-5.1-2.35-7.61-.32-2.73,2.2-2.87,5.03-1.58,8.17,3.62,8.77,9.07,16.27,15.67,22.99,2.47,2.52,4.97,5.01,7.98,8.04-2.54.68-4.56,1.3-6.61,1.78-15.77,3.69-31.4,7.66-46.27,14.41-32.87,14.93-58.39,38.61-80.53,66.46-.85,1.06-2.08,2.22-2.18,3.41-.18,2.26-.47,5.29.77,6.67,1.25,1.39,4.38,1.74,6.54,1.45,2.02-.27,3.84-1.98,5.76-3.03,8.32-4.56,16.69-9.01,26.43-10.6-2.26,1.96-4.53,3.92-6.79,5.87-23.15,19.99-40.38,43.99-49.9,73.25-5.49,16.84-8.01,34.17-8.71,51.79-.26,6.58-.16,13.18,0,19.76.1,3.64,1.9,6.57,5.74,6.94,3.94.39,5.73-2.41,6.77-5.89.76-2.58,1.86-5.05,2.81-7.56,6.31,29.52,18.77,53.9,45.07,69.68-.18,22.76,10.17,37.98,32.94,44.11.7,8.36,1.03,16.6,2.2,24.72.86,5.9,1.97,12.05,4.48,17.37,7.81,16.5,18.21,31.33,31.88,43.61,28.45,25.55,61.64,42.89,97.69,54.77,19.41,6.4,38.02,3.08,54.97-8.46,4.75-3.24,9.46-6.64,13.78-10.43,20.92-18.37,39.6-38.82,55.91-61.38,11.92-16.5,19.64-34.85,23.24-54.88,6.48-36.06,7.85-72.54,8.82-109.04.06-2.33.25-4.65.42-7.69,4.5,2.37,8.01,4.48,11.72,6.13,18.95,8.38,37.39,7.62,54.92-3.8,2.85-1.86,5.48-4.7,7.07-7.7,2.31-4.33-.98-8.35-5.92-7.77ZM463.38,332.4c-11.16-3.24-20.43-9.61-27.63-18.53-4.98-6.15-9.19-12.97-13.23-19.8-3.34-5.65-5.77-11.83-8.92-17.61-2.88-5.29-5.76-10.68-9.39-15.44-11.32-14.84-27.3-16.36-41.49-4.12-3.09,2.67-5.92,5.77-8.32,9.06-2.48,3.4-1.88,6.83.9,8.72,3.08,2.1,5.72.95,8.11-1.34,3.16-3.03,6.01-6.49,9.52-9.04,7.58-5.51,14.33-4.81,20.3,2.4,3.64,4.39,6.59,9.45,9.23,14.54,6.84,13.13,12.91,26.66,22.02,38.54,1.82,2.37,2.46,6.1,2.56,9.25.35,10.42.85,20.89.13,31.27-1.87,27.08-4.31,54.13-6.64,81.19-.33,3.78-1.37,7.51-2.25,12.2-5.26-3.97-9.79-7.78-14.71-11.01-4.79-3.14-9.98-5.69-15.57-8.83,1.74-3.22,2.29-6.35-2.31-8.13-34.44-13.37-69.47-20.49-106.22-10.53-12.85,3.48-24.52,9.5-35.84,16.31-1.18.7-2.42,1.33-3.5,2.16-14.69,11.31-29.39,9.99-44.16.17-3.89-2.58-7.91-4.96-11.78-7.57-5.3-3.56-6.67-3.65-11.68.03-3.01,2.2-5.4,5.39-10.13,3.28-1.39-.62-4.07,1.06-5.92,2.1-5.63,3.15-11.04,2.51-16.47-.4-12.82-6.87-18.35-24.12-11.85-37.05,4.7-9.35,12.93-12.5,22.7-8.64,1.52.6,2.95,1.54,4.51,1.97,4.22,1.16,6.75-.4,7.89-4.77.9-3.41,1.68-6.86,2.6-10.69,31.55-8.14,52.51-28.12,67.91-54.77,5.07-8.78,9.21-18.11,14.31-26.87,4.26-7.33,8.62-14.79,14.13-21.15,13.18-15.21,31.06-16.37,46.84-3.81,2.35,1.88,4.42,4.11,6.69,6.1,2.73,2.4,5.66,3.53,8.78.68,2.52-2.31,2.64-5.43-.26-8.8-7.33-8.54-16.38-14.57-27.4-17.31-15.18-3.77-28.57.34-39.4,10.98-6.38,6.25-11.71,13.8-16.45,21.43-5.63,9.07-10.06,18.88-15.12,28.31-8.96,16.66-20.28,31.33-36.29,41.89-8.99,5.94-18.46,10.68-29.6,11.24,0-.88-.18-1.63.03-1.77,21-13.58,31.44-33.99,36.41-57.53,2.78-13.13,4.22-26.54,6.29-39.81,4.92-31.53,32.34-56.62,64.08-58.49,9.99-.58,18.9,2.78,27.03,8.38,10.98,7.57,19.72,17.4,28.02,27.69,1.73,2.13,3.33,4.4,5.28,6.3,2.43,2.38,5.4,2.87,8.14.56,2.48-2.09,2.14-4.85.95-7.54-.33-.74-.82-1.43-1.32-2.08-9.87-12.91-20.41-25.16-33.87-34.56-16.25-11.36-33.73-13.88-52.43-7.27-13.07,4.63-24.93,11.42-35.44,20.49-8.28,7.15-14.93,15.72-17.83,26.23-4.6,16.71-14.6,29.98-25.42,42.8-8.31,9.85-18.13,18.16-29.6,25.19.98-2.7,1.99-5.41,2.95-8.12,2.48-7.02,4.73-14.09,4.05-21.68-.83-9.27-7.5-14.49-16.54-12.27-4.45,1.09-8.59,3.5-12.77,5.49-2.16,1.03-4.12,2.45-7.67,4.62,1.74-8.73,2.67-16.04,4.69-23.05,7.98-27.73,22.01-51.9,43.19-71.76,1.96-1.84,3.88-3.99,5.01-6.38,2.95-6.19.08-10.64-6.7-9.88-8.15.92-16.29,2.41-24.28,4.28-7.13,1.67-14.06,4.19-22.54,6.77,2.19-2.57,3.38-4.21,4.8-5.61,28.68-28.39,63.32-44.82,102.99-51.05,3.51-.55,7.11-.59,10.67-.78,3.01-.17,6.05-.06,9.05-.33,5.6-.5,8.45-2.48,8.6-5.97.19-4.55-3.09-5.91-6.71-7.02-7.67-2.35-14.7-5.85-21.47-12.87,3.07.62,4.76.83,6.36,1.31,21.43,6.48,43.32,6.66,65.32,4.58,18.04-1.7,36.01-4.03,54.06-5.6,22.57-1.96,45.12-1.8,66.67,6.33,7.88,2.96,15.47,7.08,22.54,11.68,9.2,6,14.59,15.17,15.46,26.06.74,9.24.37,18.64-.38,27.89-.63,7.78-4.02,14.65-9.33,20.65-5.41,6.1-3.14,12.09,4.94,13.5,2.62.46,5.47.13,8.14-.29,3.46-.54,6.84-1.53,11.65-2.65-4.91,10.62-10.39,19.07-20.46,23.45-7.83,3.4-15.69,1.07-20.87-5.69-9.42-12.29-21.67-15.73-35.7-9.25-13.9,6.41-24.34,16.71-31.26,30.42-.85,1.68-1.92,3.77-1.58,5.39.45,2.13,1.81,4.97,3.52,5.65,1.68.67,4.69-.45,6.37-1.75,1.58-1.23,2.17-3.72,3.24-5.63,5.23-9.34,12.63-16.6,21.89-21.82,10.65-5.99,18.99-3.99,25.24,6.41,3.51,5.84,6.1,12.27,8.75,18.58,5.74,13.65,10.78,27.61,16.97,41.05,8.96,19.48,21.4,36.4,39.5,48.59.33.23.42.81.94,1.88-5.74,1.2-11.02.17-16.22-1.33ZM291.13,464.94c.05-.28.15-.55.29-.82,1.31-2.55,4.96-2.57,6.5-.15.19.3.36.61.5.94.69,1.68.25,3.8.62,5.66.99,4.93,2.88,9.43,6.96,12.67,5.85,4.65,12.37,3.93,16.12-2.47,2.15-3.66,3.01-8.1,4.21-12.26.44-1.53-.24-3.47.39-4.85.05-.11.11-.22.18-.33,1.26-2.17,4.33-2.41,6.01-.54.3.33.59.67.87,1.01.3.36.27,1.06.26,1.6-.14,9.88-3.34,21.1-12.45,26.42-2.5,1.46-5.17,2.05-7.85,2-2.9-.05-5.82-.85-8.55-2.14-8.92-4.19-15.78-17.14-14.06-26.74ZM470.89,300.45c-4.27,3.13-5.78,2.65-8.75-1.65-3.41-4.94-6.88-9.96-9.43-15.37-5.24-11.12-9.9-22.52-14.73-33.84-.6-1.41-.74-3.02-1.34-5.59,21.66,5.33,40.53.22,58.5-13.64.19,21.73-.73,41.53-12.53,58.85-2.99,4.39-7.38,8.05-11.72,11.24ZM472.24,178.34l-2.58,9.03-.6.14,3.18-9.17Z"/>
  <path d="M177.77,413.3c-.55.85-1.14,2.53-2.33,3.46-4.32,3.38-8.82,6.53-13.29,9.71-2.24,1.6-4.7,1.96-6.68-.2-2.36-2.57-1.44-5.37.9-7.21,4.52-3.54,9.18-6.98,14.12-9.89,3.54-2.09,7.29.02,7.27,4.13Z"/>
  <ellipse cx="255.5" cy="366.92" rx="16.85" ry="32.67"/>
  <ellipse cx="367.98" cy="366.92" rx="16.85" ry="32.67"/>
</svg>