<?xml version="1.0" encoding="UTF-8"?>
<svg id="Laag_3" xmlns="http://www.w3.org/2000/svg" viewBox="0 0 564.63 729.16">
  <defs>
    <style>
      .cls-1 {
        fill: #1d1d1b;
      }

      .cls-2 {
        fill: #fff;
      }
    </style>
  </defs>
  <path class="cls-1" d="M527.18,445.23c-4.28-2.48-8.59-4.9-12.79-7.5-3.49-2.17-7.04-4.32-10.22-6.9-10.02-8.17-12.51-17.7-6.76-29.29,3.27-6.56,7.86-12.52,12.26-18.44,4.58-6.16,9.92-11.76,14.47-17.95,27.5-37.42,26.48-88.55-2.8-124.62-6.37-7.85-13.44-15.41-21.33-21.67-22.01-17.49-35.79-39.4-41.28-67.15-5.99-30.31-23.96-52.25-50.36-67.99-26.47-15.77-54.84-26.3-84.81-32.86-29.16-6.39-58.25-6.9-87.22,1.2-20.55,5.75-40.04,13.71-56.19,28.13-19.25,17.18-28.59,38.49-25.95,64.54.18,1.79.33,3.59.54,5.93-2.57-.43-4.4-.78-6.25-1.04-23.91-3.36-44.65,2.64-61.11,20.94-8.81,9.79-14.62,21.2-17.56,34.02-5.31,23.23-3.27,46.49.99,69.5,2.9,15.6,7.34,30.93,11.48,46.29,5.68,21.06.75,39.11-14.85,54.16-6.12,5.9-12.77,11.24-19.19,16.81-8.7,7.56-17.67,14.83-26.05,22.73-7.43,7-13.41,15.24-17.45,24.74-10.05,23.6-4.03,47.24,16.79,62.1,7.96,5.67,17.07,9.85,25.95,14.1,8.65,4.13,17.87,7.08,26.46,11.33,5.57,2.76,11.07,6.29,15.5,10.6,10.91,10.61,12.89,27.57,5.66,41.1-7.6,14.21-22.91,22.03-37.7,19.28-11.55-2.14-18.93-10.69-19-22.4-.02-3.53.61-7.09,1.16-10.6.52-3.34-.18-6.12-3.35-7.62-3.3-1.56-6.11,0-7.84,2.66-1.91,2.93-3.82,6.18-4.55,9.54-4.76,22.19-3.02,42.67,16.66,57.96-.26,1.45-.42,2.81-.74,4.13-2.9,12.17-.35,23.51,5.83,34.02,7.16,12.18,21.93,17.44,34.15,12.71,9.39-3.63,14.34-12.61,12.39-22.45-1.18-5.92-3.65-8.79-7.27-8.43-3.77.37-5.19,3.36-4.6,9.71.02.27.14.53.16.81.49,6.47-3.33,10.56-9.81,10.08-4.88-.37-8.88-2.54-11.58-6.87-4.45-7.17-3.51-16.9,3.52-22.32,4.63-3.57,10.37-6.56,16.04-7.73,8.24-1.69,16.87-2.04,25.32-1.98,13.17.09,26.33,1.61,39.49,1.49,43.9-.42,73.65-38.5,63.99-81.26-3.14-13.95-9.52-26.19-18.24-37.41-4.03-5.18-8.05-10.48-11.22-16.21-4.32-7.8-4.45-16.01-.02-24.61,1.42.92,2.41,1.36,3.14,2.07,19.92,19.01,43.42,32.51,68.12,44.13,18.68,8.77,37.47,17.18,59.59,15.05-1.34,3.49-2.49,6.21-3.42,9-8.63,26.01-4.87,51.55,16.88,70.56,8.37,7.3,17.51,13.18,27.86,17.23,5.62,2.19,11.41,4.09,16.74,6.86,4.3,2.24,8.64,5.03,11.9,8.56,7.49,8.1,7.56,18.23,1,26.19-6.3,7.65-14.92,7.48-20.73-.47-1.28-1.76-1.89-4.26-3.51-5.47-1.72-1.28-4.48-2.28-6.43-1.84-2.95.67-4.24,3.58-3.34,6.56.77,2.59,1.96,5.17,3.5,7.38,6.2,8.91,15.25,12.74,25.67,11.89,7.77-.63,15.4-3.07,24.21-4.93.86,1.69,2.04,4.15,3.34,6.54,14.46,26.62,43,38.61,70.34,29.57,24.56-8.13,34.66-28.54,32.93-53.35-.18-2.69-1.12-5.36-1.95-7.96-1-3.13-3.02-5.2-6.59-5.15-3.55.04-5.44,2.18-6.63,5.21-1.31,3.31-2.27,6.81-3.98,9.9-5.86,10.63-17.06,13.45-27.46,7.11-5.61-3.42-9.39-8.39-11.6-14.52-3.55-9.88-2.29-19.47,2.27-28.71,4.6-9.34,11.48-16.9,20.15-22.4,8.31-5.27,17.21-9.62,25.98-14.14,9.5-4.9,19.44-9.02,28.66-14.37,17.29-10.05,28.87-24.99,35.41-43.9,10.72-31.04,4.29-70.37-32.77-91.91ZM550.09,529c-5.04,17.98-15.24,32.23-31.33,41.74-8.47,5.01-17.68,8.77-26.45,13.29-9.5,4.89-19.19,9.51-28.23,15.16-10.38,6.49-18.71,15.34-24.33,26.34-7.72,15.12-8.71,30.52-.32,45.73,7.76,14.07,22.93,21.62,37.26,18.14,5.35-1.3,10.25-4.51,15.8-7.05-1.32,11.54-8.13,19.06-17.97,23.62-28.55,13.24-54.32-3.09-64.03-26.84-1.58-3.84-1.51-7.1,1.11-10.73,12.98-17.96,10.97-46.36-6.35-64.48-5.08-5.32-11.23-9.61-16.89-14.39-6.28-5.31-13.09-10.12-18.7-16.06-12.51-13.24-13.03-27.7-2.41-42.56,5.56-7.77,12.75-13.71,21.42-17.56,8.25-3.67,16.84-6.59,25.23-9.97,6.36-2.56,12.9-4.81,18.89-8.07,17.93-9.78,25.29-27.68,20.13-47.54-2.97-11.46-8.79-21.55-17.12-29.61-7.9-7.65-10.94-15.2-7.04-25.97,2.29-6.31,2.4-13.41,3.53-20.46,2.53-.13,4.68-.3,6.83-.32,13.4-.14,24.28-6.24,34.04-14.65,1.57-1.35,2.91-4.49,2.41-6.24-.48-1.65-3.49-2.63-5.49-3.71-.64-.35-1.62-.02-2.44-.1-16.8-1.61-20.64-8.68-21.07-20.13-.79-21.12-1.54-42.24-2.61-63.34-.78-15.37-2.42-30.65-6.59-45.54-3.29-11.75-8.66-22.49-15.71-32.44-14.11-19.91-34.04-29.56-57.63-32.8-1.62-.22-3.29-.24-4.93-.15-3.12.17-5.24,1.76-5.6,4.94-.37,3.26,1.64,5.13,4.46,6.08,1.54.51,3.23.59,4.86.8,31.38,4.12,51.04,22.29,61.41,51.4,5.88,16.48,7.13,33.79,8.12,51.05.8,13.97.82,27.99,1.42,41.98.29,6.83,1.04,13.66,1.74,20.47,1.23,12.16,8.16,19.98,19.09,24.69.98.42,1.89,1,2.93,1.57-9.91,7.82-22.92,8.79-34.46,2.45-9.53-5.24-17.33-12.53-23.79-21.24-8.06-10.86-14.59-22.61-19.46-35.21-4.05-10.49-7.94-21.06-11.42-31.75-1.12-3.47-1.23-7.48-.88-11.15.32-3.36.3-6.46-3.02-7.6-3.78-1.3-4.47-4.39-5.97-7.25-4.93-9.47-9.26-19.37-15.27-28.11-4.24-6.16-10.34-11.39-16.49-15.79-7.22-5.17-11.99-2.71-12.86,6.14-1.15,11.7-2.57,23.5-2.17,35.19.59,17.46,13.61,31.23,31.85,31.18.7,0,1.4.48,2.8.99-7.71,7.42-16.5,7.85-25.55,5.87-16.91-3.71-27.01-18.55-24.15-35.67,1.71-10.27,4.49-20.36,6.34-30.61,1.73-9.53,1.75-19.14-.94-28.56-6.76-23.62-30.29-30.03-48.17-13.14-8.6,8.12-12.76,18.37-13.97,29.92-.19,1.86-.31,4.27.67,5.56,1.3,1.71,3.67,3.41,5.67,3.52,1.51.08,3.9-2.03,4.58-3.71,1.11-2.72,1.1-5.89,1.65-8.85,1.59-8.46,5.65-15.44,12.76-20.4,9.82-6.85,19.45-4.08,24.14,6.91,3.58,8.37,3.69,17.17,2.09,25.91-1.92,10.51-4.8,20.86-6.53,31.41-6,36.67,29.1,55.13,52.12,49.72,7.25-1.71,12.87-5.95,18.36-10.54,1.4-1.16,2.69-2.45,4.78-4.37,2.74,7.42,5.27,14.97,8.2,22.32,4.82,12.08,9.86,24.13,17.13,34.93,3.06,4.55,6.14,9.13,9.68,13.3,3.36,3.96,7.11,7.66,11.09,11,4.19,3.52,8.85,6.46,14.41,10.44-.89,5.92-1.88,12.61-2.92,19.3-3.29,21.3-11.34,40.62-24.35,57.81-15.78,20.87-33.45,39.96-53.02,57.38-20.9,18.6-43.57,22.35-69.32,11.1-25.25-11.03-49.88-22.98-71.46-40.36-15.15-12.19-27.84-26.44-36.06-44.32-3.02-6.58-4.83-13.32-5.05-20.61-.21-7.11-1.03-14.2-1.59-21.3,2.12-1.46,3.94-2.65,5.69-3.93,2.95-2.17,4.52-4.9,2.69-8.5-1.48-2.92-4.39-3.32-8.61-1.45-11.96,5.3-22.16,1.71-28.85-10.16-6.86-12.17-4.4-26.18,6.78-34.28,2.82,3.5,5.76,7,8.53,10.63,3.99,5.23,7.55,10.82,11.84,15.79,5.1,5.92,11.48,10.15,19.38,11.69,11.15,2.17,20.94-2.34,26.19-12.42,4.07-7.81,4.87-16.18,3.64-24.83-2.34-16.53-9.53-31.06-19.95-43.65-6.56-7.92-8.1-16.28-7.74-25.88.42-11.19,2.05-21.96,9.44-30.88,7.65-9.24,17.48-13.99,29.68-12.89,4.49.41,8.38,1.89,11.2,5.93,3.17,4.55,5.85,5.46,8.61,3.52,3.7-2.59,2.84-6.14,1.7-9.66-4.82-14.83-19.58-26.08-35.98-27.32-33.65-2.54-65.42,32.31-50.09,68.41,3.38,7.97,8.78,15.15,13.69,22.39,5.24,7.71,11.31,14.86,16.45,22.63,5.94,9.01,10.25,18.86,11.23,29.76.36,4.03.2,8.28-.69,12.21-2.43,10.78-11.25,14.69-20.66,8.79-4.52-2.83-8.34-7.06-11.81-11.22-4.04-4.82-7.22-10.35-10.99-15.41-3.51-4.7-7.84-8.67-13.72-9.95-2.42-.53-6.18-.5-7.61.96-11.08,11.34-17.71,24.48-13.41,40.89,3.73,14.28,12.33,24.26,26.74,28.72,1.54.48,3.06,1.01,4.86,1.61.15,2.62.29,5.02.43,7.62-2.33,1.34-4.51,2.46-6.56,3.78-21.1,13.49-35.19,31.91-39.95,56.88-2.16,11.37-.15,22.21,6.68,31.32,5.87,7.82,12.9,14.9,20.11,21.57,7.64,7.07,16.36,12.97,24.09,19.96,5.66,5.13,11.14,10.71,15.54,16.92,14.66,20.67,10.67,48.93-8.58,65.41-3.9,3.34-8.13,5.67-13.28,5.84-6.03.2-12.07.34-18.09.13-6.86-.23-13.7-.95-20.55-1.33-17.28-.96-34.04.56-49.96,11.45,1.18-7.12-1.97-10.18-7.54-12.19-6.68-2.42-9.94-8.14-12.03-16.11,2.21,1.26,3.51,1.9,4.69,2.7,11.48,7.82,23.93,9.48,36.9,4.96,18.68-6.52,30.52-19.69,33.4-39.27,2.88-19.63-4.35-35.9-21.18-46.68-8.47-5.43-18.12-9.03-27.31-13.3-8.45-3.93-17.33-7.06-25.44-11.58-27.58-15.35-32.87-41.51-12.94-66.13,7.19-8.88,16.19-16.34,24.72-24.06,9.14-8.29,19.07-15.74,27.97-24.27,9.67-9.26,16.61-20.45,19.09-33.91,1.94-10.46.75-20.78-1.79-30.99-3.79-15.16-8.19-30.21-11.22-45.52-3.58-18.08-4.88-36.44-2.78-54.89,1.62-14.29,6.65-27.13,16.17-38.04,15.43-17.67,39.96-23.34,61.54-14.29,2.02.85,3.95,2.07,6.05,2.56,4.58,1.07,7.61-1.58,7.15-6.26-.21-2.14-1.05-4.24-1.74-6.31-7.06-21.12-2.62-40.07,11.05-57.1,8.78-10.93,20.22-18.47,32.83-24.28,31.35-14.47,64.11-18.74,98.07-12.73,30.76,5.45,60.17,14.96,87.18,31,6.13,3.63,12.09,7.61,17.81,11.86,13.63,10.13,23.01,23.46,28.17,39.61,2.58,8.1,4.79,16.32,6.88,24.56,4.94,19.45,14.76,35.9,29.67,49.36,7.94,7.18,15.95,14.31,23.56,21.84,13.57,13.45,23.23,29.26,26.41,48.35,4.19,25.11.34,48.71-14.83,69.72-4.66,6.44-10.23,12.21-14.89,18.65-5.13,7.09-10.58,14.16-14.3,21.99-7.62,16.03-3.91,30.65,9.69,42.08,3.55,2.98,7.54,5.47,11.49,7.95,4.65,2.92,9.54,5.45,14.19,8.35,26.24,16.39,36.65,43.44,28.31,73.22ZM352.57,255.98c-8.02,6.04-17.8,5.28-23.81-2.39-2.28-2.92-4.12-6.63-4.82-10.24-2.08-10.61-.65-21.18,1.38-32.61,11.98,9.19,22.45,26.98,27.25,45.24Z"/>
  <path class="cls-2" d="M352.57,255.98c-8.02,6.04-17.8,5.28-23.81-2.39-2.28-2.92-4.12-6.63-4.82-10.24-2.08-10.61-.65-21.18,1.38-32.61,11.98,9.19,22.45,26.98,27.25,45.24Z"/>
  <path class="cls-2" d="M550.09,529c-5.04,17.98-15.24,32.23-31.33,41.74-8.47,5.01-17.68,8.77-26.45,13.29-9.5,4.89-19.19,9.51-28.23,15.16-10.38,6.49-18.71,15.34-24.33,26.34-7.72,15.12-8.71,30.52-.32,45.73,7.76,14.07,22.93,21.62,37.26,18.14,5.35-1.3,10.25-4.51,15.8-7.05-1.32,11.54-8.13,19.06-17.97,23.62-28.55,13.24-54.32-3.09-64.03-26.84-1.58-3.84-1.51-7.1,1.11-10.73,12.98-17.96,10.97-46.36-6.35-64.48-5.08-5.32-11.23-9.61-16.89-14.39-6.28-5.31-13.09-10.12-18.7-16.06-12.51-13.24-13.03-27.7-2.41-42.56,5.56-7.77,12.75-13.71,21.42-17.56,8.25-3.67,16.84-6.59,25.23-9.97,6.36-2.56,12.9-4.81,18.89-8.07,17.93-9.78,25.29-27.68,20.13-47.54-2.97-11.46-8.79-21.55-17.12-29.61-7.9-7.65-10.94-15.2-7.04-25.97,2.29-6.31,2.4-13.41,3.53-20.46,2.53-.13,4.68-.3,6.83-.32,13.4-.14,24.28-6.24,34.04-14.65,1.57-1.35,2.91-4.49,2.41-6.24-.48-1.65-3.49-2.63-5.49-3.71-.64-.35-1.62-.02-2.44-.1-16.8-1.61-20.64-8.68-21.07-20.13-.79-21.12-1.54-42.24-2.61-63.34-.78-15.37-2.42-30.65-6.59-45.54-3.29-11.75-8.66-22.49-15.71-32.44-14.11-19.91-34.04-29.56-57.63-32.8-1.62-.22-3.29-.24-4.93-.15-3.12.17-5.24,1.76-5.6,4.94-.37,3.26,1.64,5.13,4.46,6.08,1.54.51,3.23.59,4.86.8,31.38,4.12,51.04,22.29,61.41,51.4,5.88,16.48,7.13,33.79,8.12,51.05.8,13.97.82,27.99,1.42,41.98.29,6.83,1.04,13.66,1.74,20.47,1.23,12.16,8.16,19.98,19.09,24.69.98.42,1.89,1,2.93,1.57-9.91,7.82-22.92,8.79-34.46,2.45-9.53-5.24-17.33-12.53-23.79-21.24-8.06-10.86-14.59-22.61-19.46-35.21-4.05-10.49-7.94-21.06-11.42-31.75-1.12-3.47-1.23-7.48-.88-11.15.32-3.36.3-6.46-3.02-7.6-3.78-1.3-4.47-4.39-5.97-7.25-4.93-9.47-9.26-19.37-15.27-28.11-4.24-6.16-10.34-11.39-16.49-15.79-7.22-5.17-11.99-2.71-12.86,6.14-1.15,11.7-2.57,23.5-2.17,35.19.59,17.46,13.61,31.23,31.85,31.18.7,0,1.4.48,2.8.99-7.71,7.42-16.5,7.85-25.55,5.87-16.91-3.71-27.01-18.55-24.15-35.67,1.71-10.27,4.49-20.36,6.34-30.61,1.73-9.53,1.75-19.14-.94-28.56-6.76-23.62-30.29-30.03-48.17-13.14-8.6,8.12-12.76,18.37-13.97,29.92-.19,1.86-.31,4.27.67,5.56,1.3,1.71,3.67,3.41,5.67,3.52,1.51.08,3.9-2.03,4.58-3.71,1.11-2.72,1.1-5.89,1.65-8.85,1.59-8.46,5.65-15.44,12.76-20.4,9.82-6.85,19.45-4.08,24.14,6.91,3.58,8.37,3.69,17.17,2.09,25.91-1.92,10.51-4.8,20.86-6.53,31.41-6,36.67,29.1,55.13,52.12,49.72,7.25-1.71,12.87-5.95,18.36-10.54,1.4-1.16,2.69-2.45,4.78-4.37,2.74,7.42,5.27,14.97,8.2,22.32,4.82,12.08,9.86,24.13,17.13,34.93,3.06,4.55,6.14,9.13,9.68,13.3,3.36,3.96,7.11,7.66,11.09,11,4.19,3.52,8.85,6.46,14.41,10.44-.89,5.92-1.88,12.61-2.92,19.3-3.29,21.3-11.34,40.62-24.35,57.81-15.78,20.87-33.45,39.96-53.02,57.38-20.9,18.6-43.57,22.35-69.32,11.1-25.25-11.03-49.88-22.98-71.46-40.36-15.15-12.19-27.84-26.44-36.06-44.32-3.02-6.58-4.83-13.32-5.05-20.61-.21-7.11-1.03-14.2-1.59-21.3,2.12-1.46,3.94-2.65,5.69-3.93,2.95-2.17,4.52-4.9,2.69-8.5-1.48-2.92-4.39-3.32-8.61-1.45-11.96,5.3-22.16,1.71-28.85-10.16-6.86-12.17-4.4-26.18,6.78-34.28,2.82,3.5,5.76,7,8.53,10.63,3.99,5.23,7.55,10.82,11.84,15.79,5.1,5.92,11.48,10.15,19.38,11.69,11.15,2.17,20.94-2.34,26.19-12.42,4.07-7.81,4.87-16.18,3.64-24.83-2.34-16.53-9.53-31.06-19.95-43.65-6.56-7.92-8.1-16.28-7.74-25.88.42-11.19,2.05-21.96,9.44-30.88,7.65-9.24,17.48-13.99,29.68-12.89,4.49.41,8.38,1.89,11.2,5.93,3.17,4.55,5.85,5.46,8.61,3.52,3.7-2.59,2.84-6.14,1.7-9.66-4.82-14.83-19.58-26.08-35.98-27.32-33.65-2.54-65.42,32.31-50.09,68.41,3.38,7.97,8.78,15.15,13.69,22.39,5.24,7.71,11.31,14.86,16.45,22.63,5.94,9.01,10.25,18.86,11.23,29.76.36,4.03.2,8.28-.69,12.21-2.43,10.78-11.25,14.69-20.66,8.79-4.52-2.83-8.34-7.06-11.81-11.22-4.04-4.82-7.22-10.35-10.99-15.41-3.51-4.7-7.84-8.67-13.72-9.95-2.42-.53-6.18-.5-7.61.96-11.08,11.34-17.71,24.48-13.41,40.89,3.73,14.28,12.33,24.26,26.74,28.72,1.54.48,3.06,1.01,4.86,1.61.15,2.62.29,5.02.43,7.62-2.33,1.34-4.51,2.46-6.56,3.78-21.1,13.49-35.19,31.91-39.95,56.88-2.16,11.37-.15,22.21,6.68,31.32,5.87,7.82,12.9,14.9,20.11,21.57,7.64,7.07,16.36,12.97,24.09,19.96,5.66,5.13,11.14,10.71,15.54,16.92,14.66,20.67,10.67,48.93-8.58,65.41-3.9,3.34-8.13,5.67-13.28,5.84-6.03.2-12.07.34-18.09.13-6.86-.23-13.7-.95-20.55-1.33-17.28-.96-34.04.56-49.96,11.45,1.18-7.12-1.97-10.18-7.54-12.19-6.68-2.42-9.94-8.14-12.03-16.11,2.21,1.26,3.51,1.9,4.69,2.7,11.48,7.82,23.93,9.48,36.9,4.96,18.68-6.52,30.52-19.69,33.4-39.27,2.88-19.63-4.35-35.9-21.18-46.68-8.47-5.43-18.12-9.03-27.31-13.3-8.45-3.93-17.33-7.06-25.44-11.58-27.58-15.35-32.87-41.51-12.94-66.13,7.19-8.88,16.19-16.34,24.72-24.06,9.14-8.29,19.07-15.74,27.97-24.27,9.67-9.26,16.61-20.45,19.09-33.91,1.94-10.46.75-20.78-1.79-30.99-3.79-15.16-8.19-30.21-11.22-45.52-3.58-18.08-4.88-36.44-2.78-54.89,1.62-14.29,6.65-27.13,16.17-38.04,15.43-17.67,39.96-23.34,61.54-14.29,2.02.85,3.95,2.07,6.05,2.56,4.58,1.07,7.61-1.58,7.15-6.26-.21-2.14-1.05-4.24-1.74-6.31-7.06-21.12-2.62-40.07,11.05-57.1,8.78-10.93,20.22-18.47,32.83-24.28,31.35-14.47,64.11-18.74,98.07-12.73,30.76,5.45,60.17,14.96,87.18,31,6.13,3.63,12.09,7.61,17.81,11.86,13.63,10.13,23.01,23.46,28.17,39.61,2.58,8.1,4.79,16.32,6.88,24.56,4.94,19.45,14.76,35.9,29.67,49.36,7.94,7.18,15.95,14.31,23.56,21.84,13.57,13.45,23.23,29.26,26.41,48.35,4.19,25.11.34,48.71-14.83,69.72-4.66,6.44-10.23,12.21-14.89,18.65-5.13,7.09-10.58,14.16-14.3,21.99-7.62,16.03-3.91,30.65,9.69,42.08,3.55,2.98,7.54,5.47,11.49,7.95,4.65,2.92,9.54,5.45,14.19,8.35,26.24,16.39,36.65,43.44,28.31,73.22Z"/>
  <g id="ZW">
    <path d="M325.82,430.76c.18,6.19-3.6,14.46-6.69,18.58-6.29,8.37-16.04,10.17-24.71,4.33-9.01-6.07-12.31-15.11-11.86-25.58.02-.36.14-.71.33-1.06,1.29-2.32,4.65-2.38,6.15-.19.26.39.49.79.66,1.21.99,2.53.69,5.32,1.7,7.93,1.25,3.22,2.65,6.47,4.97,9.09,2.61,2.95,6.65,4.96,10.48,4.06,4.42-1.03,7.18-5.44,8.66-9.72,1.03-2.98,1.67-6.08,1.92-9.22.15-1.89.29-4.06,1.8-5.2,2.08-1.57,5.3.23,6.11,2.71.31.93.46,1.96.49,3.06Z"/>
    <ellipse cx="245.59" cy="330.05" rx="16.85" ry="32.67"/>
    <ellipse cx="359.11" cy="330.05" rx="16.85" ry="32.67"/>
  </g>
</svg>