<?xml version="1.0" encoding="UTF-8"?>
<svg id="Laag_2" xmlns="http://www.w3.org/2000/svg" viewBox="0 0 564.63 729.16">
  <defs>
    <style>
      .cls-1 {
        fill: #1d1d1b;
      }

      .cls-2 {
        fill: #fff;
      }
    </style>
  </defs>
  <path class="cls-2" d="M473.93,230.72c-2.37,8.41-5.04,16.73-7.58,25.09-.67,0-1.35.01-2.02.01.5-12,1.01-23.99,1.49-35.98.19-4.94.68-9.9.35-14.8-.43-6.47-4.52-9.25-10.05-5.99-9.82,5.79-17.5,1.38-22.85-7.27-3.73-6.03-7.11-12.43-9.56-19.07-5.33-14.4-9.76-29.12-14.94-43.57-3.05-8.5-5.97-17.22-10.44-24.98-11.37-19.71-29.89-19.21-40.49.82-2.8,5.27-4.34,11.22-6.38,16.88-.36,1.01-.42,2.15-.52,3.25-.28,3.17,0,6.26,3.56,7.44,3.46,1.15,5.5-.77,7.32-3.65,7.47-11.84,22.55-13.58,32.12-3.6,1.78,1.85,2.7,4.68,3.58,7.21,5.52,15.8,10.64,31.73,16.43,47.42,3.71,10.07,8.58,19.7,16.94,26.9,2.8,2.42,2.59,5.26,2.4,8.23-1.28,20.27-2.29,40.56-4.08,60.79-1.12,12.54-3.09,25.04-5.35,37.44-3.03,16.71-9.95,31.94-19.84,45.71-16.23,22.61-35.09,42.85-55.88,61.39-20.89,18.65-43.6,22.27-69.32,11.04-25.25-11.03-49.82-23.06-71.47-40.36-17.26-13.78-30.69-30.55-39.23-51.03-1.04-2.49-1.75-5.23-2.01-7.91-.88-8.99-1.48-18.01-2.2-27.22,2.16-1.51,4.25-2.78,6.1-4.33,3.32-2.78,4.04-5.99,2.01-8.56-2.28-2.87-4.95-2.58-8.1-1.22-15.54,6.75-29.87-2.22-31.8-19.72.39-.41.7-1.03,1.14-1.14,20.55-5.25,36.76-17.24,49.69-33.45,9.04-11.34,17.21-23.46,24.91-35.77,9.02-14.41,17.38-29.26,25.51-44.2,4.57-8.41,10.26-15.83,17.96-21.14,9.66-6.67,19.77-12.89,30.28-18.07,10-4.93,20.88-4.18,31.33-.5,5.76,2.04,10.77,5.27,14.18,10.71,1.82,2.89,4.89,3.69,7.91,1.72,2.62-1.71,3.26-4.43,1.83-7.24-7.2-14.21-14.1-28.7-26.8-39.07-11.03-9-23.91-10.23-35.99-2.68-6.17,3.85-11.89,8.98-16.51,14.6-5.88,7.16-10.83,15.19-15.52,23.23-13.27,22.76-25.98,45.85-39.37,68.54-7.1,12.04-14.62,23.92-22.98,35.1-6.03,8.06-13.31,15.35-20.83,22.08-10.68,9.56-23.63,14.77-37.78,16.35-6.76,17.71,6.54,37.83,31,46.36.44,5.06,1.11,10.47,1.34,15.89.52,11.96,3.15,23.06,9.19,33.72,9.63,17.01,21.85,31.59,37,43.73,25.11,20.12,53.43,34.5,83.5,45.51,23.52,8.62,45.43,5,65.19-10.39,7.96-6.2,15.51-12.93,23.93-19.98.27,2.21.7,3.95.66,5.67-.81,33.4-6.28,66.03-16.36,97.88-.42,1.31-1.38,2.6-1.31,3.86.08,1.44.66,3.45,1.71,4.07,1.08.65,3.49.51,4.42-.31,2-1.77,3.7-4.04,5.04-6.39,7.91-13.79,15.68-27.66,23.8-42.03.27,1.41.73,2.74.74,4.07.54,55.73,1.06,111.45,1.54,167.17.19,22.28-2.8,44.28-5.85,67.24-5.87.4-11.52,1.01-17.18,1.11-41.74.76-83.49,1.48-125.23,2.05-14.01.19-28.02-.26-42.03-.12-36.91.39-72.55-7.07-107.76-17.22-7.08-2.04-14.1-4.29-21.76-6.63,9.44-23.34,7.96-47.33,8.04-71.13.13-39.53.79-79.08-.18-118.59-.98-40.05-4.14-80.04-5.5-120.09-1.37-40.59-2.56-81.23-2.22-121.83.26-29.93,5.2-59.48,12.61-88.63,10.81-42.51,33.46-77.33,67.17-104.95,33.02-27.04,70.78-44.97,112.16-54.98,19.14-4.62,38.6-4.54,57.95.17,14.74,3.59,27.64,10.45,38.91,20.5,1.64,1.47,3.25,2.96,4.91,4.4,9.62,8.29,9.69,8.38,20.49,1.67,6.88-4.28,14.12-4.01,21.49-2.27,10.88,2.58,20.49,7.78,28.91,15.12,16.54,14.41,29.87,31.49,40.24,50.7,6.52,12.07,7.47,25.63,8.1,39.17,1.37,29.44-3.89,57.92-11.81,86.05Z"/>
  <path class="cls-1" d="M499.11,714.26c-.3-10.69-.69-21.39-.71-32.09-.24-118.06-.42-236.11-.61-354.16-.1-62.05-.08-124.1-.41-186.15-.06-12.87-.87-25.99-6.99-37.69-10.11-19.33-22.66-37.07-38.68-51.96-7.17-6.66-15.11-12.99-23.72-17.5-16.34-8.54-33.49-12.65-50.5-.71-3.96-3.23-7.7-6.02-11.14-9.15-11.25-10.2-24.49-16.55-39.02-20.41-21.4-5.69-43.1-5.86-64.46-.82-43.07,10.16-82.33,28.8-116.77,56.72-36.29,29.42-60.62,66.68-72.16,112.27-6.9,27.27-10.86,54.91-12.68,82.87-2.91,44.48.67,88.91,2.16,133.34,1.77,52.66,4.64,105.3,6.05,157.98.83,30.72-.21,61.49-.51,92.23-.17,17.85-.15,35.69-7.58,52.57-2.4,5.44-.06,9.45,5.46,11.83,1.25.55,2.59.91,3.89,1.34,46.97,15.44,94.82,25.36,144.63,24.31,63.7-1.34,127.42-2.09,191.12-3.11,5.08-.08,6.88-1.48,8.05-6.39.5-2.12.59-4.34.74-6.53.76-11.78,1.46-23.56,2.25-35.34.17-2.59.65-5.15.98-7.73.48-.04.96-.07,1.44-.1,1.67,4.86,3.38,9.72,5.01,14.6,3.97,11.98,7.9,23.97,11.87,35.95,1.13,3.43,2.2,7.21,6.77,7.09,15.34-.39,30.71-.56,46-1.67,7.84-.57,9.73-3.89,9.52-11.59ZM473.93,230.72c-2.37,8.41-5.04,16.73-7.58,25.09-.67,0-1.35.01-2.02.01.5-12,1.01-23.99,1.49-35.98.19-4.94.68-9.9.35-14.8-.43-6.47-4.52-9.25-10.05-5.99-9.82,5.79-17.5,1.38-22.85-7.27-3.73-6.03-7.11-12.43-9.56-19.07-5.33-14.4-9.76-29.12-14.94-43.57-3.05-8.5-5.97-17.22-10.44-24.98-11.37-19.71-29.89-19.21-40.49.82-2.8,5.27-4.34,11.22-6.38,16.88-.36,1.01-.42,2.15-.52,3.25-.28,3.17,0,6.26,3.56,7.44,3.46,1.15,5.5-.77,7.32-3.65,7.47-11.84,22.55-13.58,32.12-3.6,1.78,1.85,2.7,4.68,3.58,7.21,5.52,15.8,10.64,31.73,16.43,47.42,3.71,10.07,8.58,19.7,16.94,26.9,2.8,2.42,2.59,5.26,2.4,8.23-1.28,20.27-2.29,40.56-4.08,60.79-1.12,12.54-3.09,25.04-5.35,37.44-3.03,16.71-9.95,31.94-19.84,45.71-16.23,22.61-35.09,42.85-55.88,61.39-20.89,18.65-43.6,22.27-69.32,11.04-25.25-11.03-49.82-23.06-71.47-40.36-17.26-13.78-30.69-30.55-39.23-51.03-1.04-2.49-1.75-5.23-2.01-7.91-.88-8.99-1.48-18.01-2.2-27.22,2.16-1.51,4.25-2.78,6.1-4.33,3.32-2.78,4.04-5.99,2.01-8.56-2.28-2.87-4.95-2.58-8.1-1.22-15.54,6.75-29.87-2.22-31.8-19.72.39-.41.7-1.03,1.14-1.14,20.55-5.25,36.76-17.24,49.69-33.45,9.04-11.34,17.21-23.46,24.91-35.77,9.02-14.41,17.38-29.26,25.51-44.2,4.57-8.41,10.26-15.83,17.96-21.14,9.66-6.67,19.77-12.89,30.28-18.07,10-4.93,20.88-4.18,31.33-.5,5.76,2.04,10.77,5.27,14.18,10.71,1.82,2.89,4.89,3.69,7.91,1.72,2.62-1.71,3.26-4.43,1.83-7.24-7.2-14.21-14.1-28.7-26.8-39.07-11.03-9-23.91-10.23-35.99-2.68-6.17,3.85-11.89,8.98-16.51,14.6-5.88,7.16-10.83,15.19-15.52,23.23-13.27,22.76-25.98,45.85-39.37,68.54-7.1,12.04-14.62,23.92-22.98,35.1-6.03,8.06-13.31,15.35-20.83,22.08-10.68,9.56-23.63,14.77-37.78,16.35-6.76,17.71,6.54,37.83,31,46.36.44,5.06,1.11,10.47,1.34,15.89.52,11.96,3.15,23.06,9.19,33.72,9.63,17.01,21.85,31.59,37,43.73,25.11,20.12,53.43,34.5,83.5,45.51,23.52,8.62,45.43,5,65.19-10.39,7.96-6.2,15.51-12.93,23.93-19.98.27,2.21.7,3.95.66,5.67-.81,33.4-6.28,66.03-16.36,97.88-.42,1.31-1.38,2.6-1.31,3.86.08,1.44.66,3.45,1.71,4.07,1.08.65,3.49.51,4.42-.31,2-1.77,3.7-4.04,5.04-6.39,7.91-13.79,15.68-27.66,23.8-42.03.27,1.41.73,2.74.74,4.07.54,55.73,1.06,111.45,1.54,167.17.19,22.28-2.8,44.28-5.85,67.24-5.87.4-11.52,1.01-17.18,1.11-41.74.76-83.49,1.48-125.23,2.05-14.01.19-28.02-.26-42.03-.12-36.91.39-72.55-7.07-107.76-17.22-7.08-2.04-14.1-4.29-21.76-6.63,9.44-23.34,7.96-47.33,8.04-71.13.13-39.53.79-79.08-.18-118.59-.98-40.05-4.14-80.04-5.5-120.09-1.37-40.59-2.56-81.23-2.22-121.83.26-29.93,5.2-59.48,12.61-88.63,10.81-42.51,33.46-77.33,67.17-104.95,33.02-27.04,70.78-44.97,112.16-54.98,19.14-4.62,38.6-4.54,57.95.17,14.74,3.59,27.64,10.45,38.91,20.5,1.64,1.47,3.25,2.96,4.91,4.4,9.62,8.29,9.69,8.38,20.49,1.67,6.88-4.28,14.12-4.01,21.49-2.27,10.88,2.58,20.49,7.78,28.91,15.12,16.54,14.41,29.87,31.49,40.24,50.7,6.52,12.07,7.47,25.63,8.1,39.17,1.37,29.44-3.89,57.92-11.81,86.05Z"/>
  <path d="M334.36,347.65c.05,3.99-1.31,8.45-2.86,11.98-2.41,5.49-5.97,10.83-11.37,13.43-6.28,3.03-13.39,1.47-18.72-2.69-7.78-6.07-10.26-14.62-10.61-23.98-.11-3.06,1.56-5,4.61-5.99,10.09-3.27,20.37-4.44,30.84-2.58,6.03,1.07,8.06,5.12,8.12,9.83ZM325.99,347.15c-9.39-1.92-18.28-1.46-27,2.04,1.16,8,2.97,11.84,6.85,14.92,5.76,4.57,12.19,3.72,16.25-2.37,2.76-4.14,4.22-8.75,3.89-14.58Z"/>
  <ellipse cx="254.25" cy="247.67" rx="16.85" ry="32.67"/>
  <ellipse cx="367.77" cy="247.67" rx="16.85" ry="32.67"/>
</svg>